TITLE ""
FILE "Disc4Track38.mp3" MP3
  TRACK 01 AUDIO
    TITLE "Disc4Track38_01"
    INDEX 01 00:00:00
  TRACK 02 AUDIO
    TITLE "Disc4Track38_02"
    INDEX 01 00:01:04
  TRACK 03 AUDIO
    TITLE "Disc4Track38_03"
    INDEX 01 00:02:62
  TRACK 04 AUDIO
    TITLE "Disc4Track38_04"
    INDEX 01 00:03:73
  TRACK 05 AUDIO
    TITLE "Disc4Track38_05"
    INDEX 01 00:05:62
  TRACK 06 AUDIO
    TITLE "Disc4Track38_06"
    INDEX 01 00:06:19
  TRACK 07 AUDIO
    TITLE "Disc4Track38_07"
    INDEX 01 00:07:40
  TRACK 08 AUDIO
    TITLE "Disc4Track38_08"
    INDEX 01 00:10:19
  TRACK 09 AUDIO
    TITLE "Disc4Track38_09"
    INDEX 01 00:11:36
  TRACK 10 AUDIO
    TITLE "Disc4Track38_10"
    INDEX 01 00:13:66
  TRACK 11 AUDIO
    TITLE "Disc4Track38_11"
    INDEX 01 00:14:22
  TRACK 12 AUDIO
    TITLE "Disc4Track38_12"
    INDEX 01 00:15:43
  TRACK 13 AUDIO
    TITLE "Disc4Track38_13"
    INDEX 01 00:16:54
  TRACK 14 AUDIO
    TITLE "Disc4Track38_14"
    INDEX 01 00:17:75
  TRACK 15 AUDIO
    TITLE "Disc4Track38_15"
    INDEX 01 00:18:40
  TRACK 16 AUDIO
    TITLE "Disc4Track38_16"
    INDEX 01 00:19:72
  TRACK 17 AUDIO
    TITLE "Disc4Track38_17"
    INDEX 01 00:22:22
  TRACK 18 AUDIO
    TITLE "Disc4Track38_18"
    INDEX 01 00:23:52
  TRACK 19 AUDIO
    TITLE "Disc4Track38_19"
    INDEX 01 00:25:75
  TRACK 20 AUDIO
    TITLE "Disc4Track38_20"
    INDEX 01 00:26:31
  TRACK 21 AUDIO
    TITLE "Disc4Track38_21"
    INDEX 01 00:27:48
  TRACK 22 AUDIO
    TITLE "Disc4Track38_22"
    INDEX 01 00:29:63
  TRACK 23 AUDIO
    TITLE "Disc4Track38_23"
    INDEX 01 00:31:05
  TRACK 24 AUDIO
    TITLE "Disc4Track38_24"
    INDEX 01 00:34:13
  TRACK 25 AUDIO
    TITLE "Disc4Track38_25"
    INDEX 01 00:34:44
  TRACK 26 AUDIO
    TITLE "Disc4Track38_26"
    INDEX 01 00:35:64
  TRACK 27 AUDIO
    TITLE "Disc4Track38_27"
    INDEX 01 00:38:44
  TRACK 28 AUDIO
    TITLE "Disc4Track38_28"
    INDEX 01 00:39:65
  TRACK 29 AUDIO
    TITLE "Disc4Track38_29"
    INDEX 01 00:40:29
  TRACK 30 AUDIO
    TITLE "Disc4Track38_30"
    INDEX 01 00:41:37
  TRACK 31 AUDIO
    TITLE "Disc4Track38_31"
    INDEX 01 00:44:68
  TRACK 32 AUDIO
    TITLE "Disc4Track38_32"
    INDEX 01 00:46:01
  TRACK 33 AUDIO
    TITLE "Disc4Track38_33"
    INDEX 01 00:47:73
  TRACK 34 AUDIO
    TITLE "Disc4Track38_34"
    INDEX 01 00:48:29
  TRACK 35 AUDIO
    TITLE "Disc4Track38_35"
    INDEX 01 00:49:42
  TRACK 36 AUDIO
    TITLE "Disc4Track38_36"
    INDEX 01 00:50:38
  TRACK 37 AUDIO
    TITLE "Disc4Track38_37"
    INDEX 01 00:51:51
  TRACK 38 AUDIO
    TITLE "Disc4Track38_38"
    INDEX 01 00:53:57
  TRACK 39 AUDIO
    TITLE "Disc4Track38_39"
    INDEX 01 00:54:12
  TRACK 40 AUDIO
    TITLE "Disc4Track38_40"
    INDEX 01 00:55:25
  TRACK 41 AUDIO
    TITLE "Disc4Track38_41"
    INDEX 01 00:56:48
  TRACK 42 AUDIO
    TITLE "Disc4Track38_42"
    INDEX 01 00:57:59
  TRACK 43 AUDIO
    TITLE "Disc4Track38_43"
    INDEX 01 01:01:69
